<?xml version="1.0" encoding="UTF-8" standalone="no"?>
<!DOCTYPE svg PUBLIC "-//W3C//DTD SVG 1.1//EN" "http://www.w3.org/Graphics/SVG/1.1/DTD/svg11.dtd">
<svg width="100%" height="100%" viewBox="0 0 973 630" version="1.1" xmlns="http://www.w3.org/2000/svg" xmlns:xlink="http://www.w3.org/1999/xlink" xml:space="preserve" xmlns:serif="http://www.serif.com/" style="fill-rule:evenodd;clip-rule:evenodd;stroke-linecap:round;stroke-linejoin:round;stroke-miterlimit:1.5;">
    <g transform="matrix(1,0,0,1,2136.69,-89.6757)">
        <g transform="matrix(4.40214,7.98793e-17,-7.98793e-17,4.40214,-2339.15,-926.829)">
            <g>
                <g transform="matrix(1.84211,0,0,1,-236.868,-8.59925)">
                    <ellipse cx="260.5" cy="310.954" rx="9.5" ry="19.599" style="fill:rgb(106,150,189);stroke:black;stroke-width:0.6px;"/>
                </g>
                <g transform="matrix(1.84211,0,0,1,-409.868,-8.59925)">
                    <ellipse cx="260.5" cy="310.954" rx="9.5" ry="19.599" style="fill:rgb(106,150,189);stroke:black;stroke-width:0.6px;"/>
                </g>
                <g transform="matrix(0.901042,0,0,1,-173.281,-13.645)">
                    <path d="M462,261.806L462,370.194C462,379.47 453.643,387 443.349,387L288.651,387C278.357,387 270,379.47 270,370.194L270,261.806C270,252.53 278.357,245 288.651,245L443.349,245C453.643,245 462,252.53 462,261.806Z" style="fill:rgb(106,150,189);stroke:black;stroke-width:0.93px;"/>
                </g>
                <g transform="matrix(0.774999,0,0,0.833111,-127.15,39.0921)">
                    <path d="M462,261.806L462,370.194C462,379.47 453.905,387 443.934,387L288.066,387C278.095,387 270,379.47 270,370.194L270,261.806C270,252.53 278.095,245 288.066,245L443.934,245C453.905,245 462,252.53 462,261.806Z" style="fill:rgb(191,252,251);stroke:black;stroke-width:1.1px;"/>
                </g>
                <g transform="matrix(0.964034,0.26578,-0.26578,0.964034,-488.596,-146.822)">
                    <path d="M740.17,291.262L759,286C763.299,284.128 766.563,287.852 764.521,292.653C761.243,300.359 749.423,304.735 739.43,301C735.354,299.477 732.234,293.866 740.17,291.262Z"/>
                    <clipPath id="_clip1">
                        <path d="M740.17,291.262L759,286C763.299,284.128 766.563,287.852 764.521,292.653C761.243,300.359 749.423,304.735 739.43,301C735.354,299.477 732.234,293.866 740.17,291.262Z"/>
                    </clipPath>
                    <g clip-path="url(#_clip1)">
                        <g transform="matrix(1,0,0,1,-3.39277,1.01783)">
                            <path d="M738.593,290.883C738.866,293.5 739.481,295.799 740.822,296.578C742.508,297.519 743.966,297.32 745,295C745.498,292.967 745.392,290.974 745,289L738.593,290.883Z" style="fill:white;"/>
                        </g>
                        <g transform="matrix(1,0,0,1,5.69987,-1.49282)">
                            <path d="M738.593,290.883C738.866,293.5 739.481,295.799 740.822,296.578C742.508,297.519 743.966,297.32 745,295C745.498,292.967 745.392,290.974 745,289L738.593,290.883Z" style="fill:white;"/>
                        </g>
                        <g transform="matrix(1,0,0,1,14.114,-3.73206)">
                            <path d="M738.593,290.883C738.866,293.5 739.481,295.799 740.822,296.578C742.508,297.519 743.966,297.32 745,295C745.498,292.967 745.392,290.974 745,289L738.593,290.883Z" style="fill:white;"/>
                        </g>
                        <g transform="matrix(1,0,0,1,1.09696,0.136921)">
                            <path d="M738.593,290.883C738.866,293.5 739.481,295.799 740.822,296.578C742.508,297.519 743.966,297.32 745,295C745.498,292.967 745.392,290.974 745,289L738.593,290.883Z" style="fill:white;"/>
                        </g>
                        <g transform="matrix(1,0,0,1,10.1896,-2.5773)">
                            <path d="M738.593,290.883C738.866,293.5 739.481,295.799 740.822,296.578C742.508,297.519 743.966,297.32 745,295C745.498,292.967 745.392,290.974 745,289L738.593,290.883Z" style="fill:white;"/>
                        </g>
                        <g transform="matrix(1,0,0,1,18.6037,-4.81653)">
                            <path d="M738.593,290.883C738.866,293.5 739.481,295.799 740.822,296.578C742.508,297.519 743.966,297.32 745,295C745.498,292.967 745.392,290.974 745,289L738.593,290.883Z" style="fill:white;"/>
                        </g>
                        <g transform="matrix(1.83243,-0.462612,-0.244778,-0.969579,-534.398,927.291)">
                            <path d="M738.593,290.883C738.866,293.5 740.09,295.401 741.431,296.18C742.531,296.819 743.981,297.313 745,295C745.758,293.279 745.392,290.974 745,289L738.593,290.883Z" style="fill:rgb(255,0,111);"/>
                        </g>
                    </g>
                    <path d="M740.17,291.262L759,286C763.299,284.128 766.563,287.852 764.521,292.653C761.243,300.359 749.423,304.735 739.43,301C735.354,299.477 732.234,293.866 740.17,291.262Z" style="fill:none;stroke:black;stroke-width:0.89px;"/>
                </g>
                <g transform="matrix(1.15569,0.289307,-0.289307,1.15569,-628.706,-110.241)">
                    <g transform="matrix(0.819127,-0.0270076,0.0282352,0.85636,106.571,-36.7816)">
                        <path d="M725.943,257.971C733.198,256.164 744.601,253.939 752,253L753,258C745.112,258.558 733.673,261.098 726.943,263.971" style="fill:rgb(221,153,44);"/>
                        <clipPath id="_clip2">
                            <path d="M725.943,257.971C733.198,256.164 744.601,253.939 752,253L753,258C745.112,258.558 733.673,261.098 726.943,263.971"/>
                        </clipPath>
                        <g clip-path="url(#_clip2)">
                            <g transform="matrix(1.55098,0,0.302375,1,-483.16,0)">
                                <path d="M733.195,251.971C734.201,255.314 734.136,260.448 733.195,267.048L727.494,267.291L727.494,252.214L733.195,251.971Z" style="fill:rgb(124,57,22);"/>
                            </g>
                        </g>
                        <path d="M725.943,257.971C733.198,256.164 744.601,253.939 752,253L753,258C745.112,258.558 733.673,261.098 726.943,263.971" style="fill:none;stroke:black;stroke-width:0.89px;"/>
                    </g>
                    <g transform="matrix(0.819127,-0.0270076,0.0282352,0.85636,103.668,-48.3777)">
                        <path d="M728.482,263.166C731.459,267.213 733.636,271.84 734.78,276.914C739.664,298.584 723.857,320.255 699.502,325.277C675.148,330.299 651.41,316.783 646.526,295.113C641.642,273.443 657.45,251.772 681.804,246.75C698.014,243.408 713.952,248.278 724.238,258.299C727.566,257.063 728.097,254.09 739.223,251.791C748.215,249.932 751.988,251.333 755.495,252.309C760.428,238.898 772.958,227.953 789.371,224.569C813.725,219.547 837.463,233.063 842.347,254.733C847.231,276.403 831.423,298.074 807.069,303.096C782.715,308.118 758.977,294.602 754.093,272.932C752.964,267.921 752.941,262.911 753.874,258.106C750.349,256.198 744.688,256.527 740.471,257.327C736.042,258.168 729.868,260.971 728.482,263.166Z" style="fill:rgb(248,159,21);stroke:black;stroke-width:0.89px;"/>
                    </g>
                </g>
                <g transform="matrix(0.84132,0,0,0.84132,-50.7569,22.1327)">
                    <ellipse cx="310.2" cy="320" rx="44.075" ry="41" style="fill:rgb(46,79,94);"/>
                    <clipPath id="_clip3">
                        <ellipse cx="310.2" cy="320" rx="44.075" ry="41"/>
                    </clipPath>
                    <g clip-path="url(#_clip3)">
                        <g transform="matrix(1.37367,0.343873,-0.343873,1.37367,-684.48,-284.522)">
                            <path d="M784.23,275.629C785.582,250.266 794.061,231.145 806,215C821.494,227.967 829.127,248.18 822,282C807.832,285.792 795.57,282.442 784.23,275.629Z" style="fill:rgb(0,3,12);"/>
                        </g>
                        <g transform="matrix(1.40566,0.171267,-0.711215,1.33987,-630.051,-143.18)">
                            <path d="M772.485,225.254C776.752,223.254 780.409,230.398 779.921,234.907C779.305,240.598 775.536,243 772.5,243C769.464,243 767,239.191 767,234.5C767,229.809 770.094,226.374 772.485,225.254Z" style="fill:rgb(252,246,105);"/>
                        </g>
                    </g>
                    <ellipse cx="310.2" cy="320" rx="44.075" ry="41" style="fill:none;stroke:black;stroke-width:1.05px;"/>
                </g>
                <g transform="matrix(0.84132,0,0,0.84132,-158.198,22.1327)">
                    <ellipse cx="310.2" cy="320" rx="44.075" ry="41" style="fill:rgb(46,79,94);"/>
                    <clipPath id="_clip4">
                        <ellipse cx="310.2" cy="320" rx="44.075" ry="41"/>
                    </clipPath>
                    <g clip-path="url(#_clip4)">
                        <g transform="matrix(1.37367,0.343873,-0.343873,1.37367,-684.175,-284.522)">
                            <path d="M784.23,275.629C785.582,250.266 794.061,231.145 806,215C821.494,227.967 829.127,248.18 822,282C807.832,285.792 795.57,282.442 784.23,275.629Z" style="fill:rgb(0,3,12);"/>
                        </g>
                        <g transform="matrix(1.40566,0.171267,-0.711215,1.33987,-634.916,-143.18)">
                            <path d="M772.485,225.254C776.752,223.254 780.409,230.398 779.921,234.907C779.305,240.598 775.536,243 772.5,243C769.464,243 767,239.191 767,234.5C767,229.809 770.094,226.374 772.485,225.254Z" style="fill:rgb(252,246,105);"/>
                        </g>
                    </g>
                    <ellipse cx="310.2" cy="320" rx="44.075" ry="41" style="fill:none;stroke:black;stroke-width:1.05px;"/>
                </g>
                <g transform="matrix(1,0,0,1,-14.5,-2.55178)">
                    <path d="M279,250.75L281,304.25C281,306.32 279.32,308 277.25,308C275.18,308 273.5,306.32 273.5,304.25L273.5,250.75C273.5,248.68 274.18,247 276.25,247C278.32,247 279,248.68 279,250.75Z" style="fill:rgb(106,150,189);stroke:black;stroke-width:0.89px;"/>
                </g>
                <g transform="matrix(-1,0,0,1,327.434,-2.55178)">
                    <path d="M279,250.75L281,304.25C281,306.32 279.32,308 277.25,308C275.18,308 273.5,306.32 273.5,304.25L273.5,250.75C273.5,248.68 274.18,247 276.25,247C278.32,247 279,248.68 279,250.75Z" style="fill:rgb(106,150,189);stroke:black;stroke-width:0.89px;"/>
                </g>
                <g transform="matrix(1,0,0,1,-14.5,-3)">
                    <circle cx="276" cy="245" r="5" style="fill:rgb(106,150,189);stroke:black;stroke-width:0.89px;"/>
                </g>
                <g transform="matrix(-1,0,0,1,327.434,-3)">
                    <circle cx="276" cy="245" r="5" style="fill:rgb(106,150,189);stroke:black;stroke-width:0.89px;"/>
                </g>
            </g>
        </g>
    </g>
</svg>
